<svg xmlns="http://www.w3.org/2000/svg" width="20.951" height="20.946" viewBox="0 0 20.951 20.946">
  <g id="Group_810" data-name="Group 810" transform="translate(0 0)">
    <path id="Icon_awesome-instagram" data-name="Icon awesome-instagram" d="M20.872,8.392A6.2,6.2,0,0,0,19.18,4a6.24,6.24,0,0,0-4.389-1.692c-1.729-.1-6.913-.1-8.642,0A6.231,6.231,0,0,0,1.76,4,6.219,6.219,0,0,0,.068,8.387c-.1,1.729-.1,6.913,0,8.642A6.2,6.2,0,0,0,1.76,21.418,6.248,6.248,0,0,0,6.149,23.11c1.729.1,6.913.1,8.642,0a6.2,6.2,0,0,0,4.389-1.692,6.24,6.24,0,0,0,1.692-4.389c.1-1.729.1-6.908,0-8.637Z" transform="translate(0.005 -2.237)" fill="#430d50"/>
    <path id="Icon_awesome-instagram-2" data-name="Icon awesome-instagram" d="M13.049,9.172a5.37,5.37,0,1,0,5.37,5.37A5.362,5.362,0,0,0,13.049,9.172Zm0,8.862a3.491,3.491,0,1,1,3.491-3.491,3.5,3.5,0,0,1-3.491,3.491Zm6.843-9.082A1.253,1.253,0,1,1,18.639,7.7,1.25,1.25,0,0,1,19.891,8.952Z" transform="translate(-2.571 -4.068)" fill="#f0f2f9"/>
  </g>
</svg>
