<svg xmlns="http://www.w3.org/2000/svg" width="20.951" height="20.946" viewBox="0 0 20.951 20.946">
  <g id="Group_809" data-name="Group 809" transform="translate(0 0)">
    <path id="Icon_awesome-instagram" data-name="Icon awesome-instagram" d="M20.872,8.392A6.2,6.2,0,0,0,19.18,4a6.24,6.24,0,0,0-4.389-1.692c-1.729-.1-6.913-.1-8.642,0A6.231,6.231,0,0,0,1.76,4,6.219,6.219,0,0,0,.068,8.387c-.1,1.729-.1,6.913,0,8.642A6.2,6.2,0,0,0,1.76,21.418,6.248,6.248,0,0,0,6.149,23.11c1.729.1,6.913.1,8.642,0a6.2,6.2,0,0,0,4.389-1.692,6.24,6.24,0,0,0,1.692-4.389c.1-1.729.1-6.908,0-8.637Z" transform="translate(0.005 -2.237)" fill="#430d50"/>
    <path id="Icon_awesome-facebook-square" data-name="Icon awesome-facebook-square" d="M11.54,24.907V17.788H8.6V14.438H11.54V11.884c0-2.9,1.729-4.509,4.378-4.509a17.839,17.839,0,0,1,2.595.226v2.851H17.052a1.675,1.675,0,0,0-1.889,1.81v2.176h3.215l-.514,3.351h-2.7v7.119Z" transform="translate(-2.778 -3.963)" fill="#f0f2f9"/>
  </g>
</svg>
