<svg xmlns="http://www.w3.org/2000/svg" width="38.096" height="38.087" viewBox="0 0 38.096 38.087">
  <g id="Group_810" data-name="Group 810" transform="translate(-0.001 -0.001)">
    <path id="Subtraction_3" data-name="Subtraction 3" d="M19.049,38.088c-3.392,0-6.4-.051-7.857-.134-3.562-.179-6.024-1.127-7.98-3.076S.3,30.464.135,26.9c-.179-3.158-.179-12.557,0-15.715a14.964,14.964,0,0,1,.757-4.3A9.581,9.581,0,0,1,3.211,3.2C5.172,1.249,7.633.3,11.192.135,12.646.052,15.657,0,19.049,0s6.4.051,7.857.134c3.569.178,6.031,1.127,7.981,3.076s2.907,4.412,3.076,7.98c.179,3.156.179,12.55,0,15.706-.179,3.571-1.128,6.032-3.076,7.98s-4.414,2.908-7.981,3.076C25.451,38.036,22.441,38.088,19.049,38.088Zm.006-28.809a9.765,9.765,0,1,0,9.765,9.765A9.776,9.776,0,0,0,19.055,9.279ZM29.219,6.6A2.277,2.277,0,1,0,31.5,8.879,2.28,2.28,0,0,0,29.219,6.6ZM19.055,25.393A6.349,6.349,0,1,1,25.4,19.044,6.356,6.356,0,0,1,19.055,25.393Z" transform="translate(0)" fill="#fff"/>
  </g>
</svg>
