<svg xmlns="http://www.w3.org/2000/svg" width="38.096" height="38.087" viewBox="0 0 38.096 38.087">
  <g id="Group_809" data-name="Group 809" transform="translate(0.001 -0.001)">
    <path id="Subtraction_2" data-name="Subtraction 2" d="M19.047,38.088c-.656,0-1.314,0-1.956-.006H21l-.057,0C20.324,38.086,19.685,38.088,19.047,38.088Zm-3.114-.015h0c-2.082-.021-3.766-.063-4.743-.118-3.562-.179-6.024-1.127-7.98-3.076S.3,30.464.133,26.9c-.179-3.158-.179-12.557,0-15.715a14.964,14.964,0,0,1,.757-4.3A9.581,9.581,0,0,1,3.209,3.2C5.17,1.249,7.631.3,11.19.135,12.644.052,15.655,0,19.047,0s6.4.051,7.857.134c3.569.178,6.03,1.127,7.98,3.076s2.907,4.412,3.076,7.98c.179,3.156.179,12.55,0,15.706-.179,3.571-1.128,6.032-3.076,7.98s-4.414,2.908-7.98,3.076c-.929.053-2.445.092-4.384.115V25.137h4.91l.935-6.092H22.521V15.089a3.411,3.411,0,0,1,.735-2.271,3.392,3.392,0,0,1,2.7-1.021h2.658V6.612A32.626,32.626,0,0,0,23.9,6.2c-4.985,0-7.961,3.065-7.961,8.2v4.644H10.58v6.092h5.354V38.071Z" fill="#fff"/>
  </g>
</svg>
