<svg xmlns="http://www.w3.org/2000/svg" width="38.097" height="38.086" viewBox="0 0 38.097 38.086">
  <path id="Subtraction_4" data-name="Subtraction 4" d="M9862.048-9735.913c-3.378,0-6.388-.051-7.856-.134-3.561-.177-6.022-1.125-7.982-3.075s-2.907-4.413-3.075-7.982c-.18-3.157-.18-12.555,0-15.712a14.928,14.928,0,0,1,.757-4.3,9.558,9.558,0,0,1,2.318-3.68c1.961-1.952,4.423-2.9,7.982-3.07,1.46-.081,4.471-.132,7.856-.132s6.4.051,7.855.132c3.573.181,6.035,1.13,7.98,3.078s2.909,4.413,3.077,7.979c.18,3.155.18,12.55,0,15.705-.18,3.573-1.129,6.034-3.077,7.982s-4.412,2.907-7.98,3.075C9868.435-9735.964,9865.425-9735.913,9862.048-9735.913Zm.977-31.229a11.93,11.93,0,0,0-11.963,11.871,11.819,11.819,0,0,0,1.716,6.133l-2.159,6.368,6.623-2.105a12.029,12.029,0,0,0,5.783,1.478,11.933,11.933,0,0,0,11.966-11.873A11.932,11.932,0,0,0,9863.024-9767.142Zm3.211,17.826a8.632,8.632,0,0,1-3.013-.976,11.791,11.791,0,0,1-4.985-4.677l-.011-.019c-.022-.035-.038-.061-.048-.073a5.809,5.809,0,0,1-1.128-3.182,3.323,3.323,0,0,1,1.1-2.429l.06-.059a1.165,1.165,0,0,1,.828-.348h.008l.138,0,.229,0c.067,0,.132,0,.2,0h.039c.179,0,.423.007.638.579.078.206.2.523.352.943.222.6.462,1.243.507,1.341a.555.555,0,0,1,0,.53l-.044.081,0,0a1.741,1.741,0,0,1-.278.41c-.055.059-.111.122-.168.186-.105.119-.217.242-.311.328-.153.14-.327.3-.156.612a9.033,9.033,0,0,0,1.619,2.162,7.882,7.882,0,0,0,2.193,1.493c.092.043.156.075.205.1a.733.733,0,0,0,.346.111.434.434,0,0,0,.321-.161l.013-.013c.23-.248.791-.855,1-1.141a.432.432,0,0,1,.353-.217.96.96,0,0,1,.34.091c.285.114,1.784.92,2.048,1.063l.141.075.033.018.009,0c.2.106.335.177.391.276a2.508,2.508,0,0,1-.233,1.437,3.128,3.128,0,0,1-2.115,1.364,1.72,1.72,0,0,0-.258.037A1.663,1.663,0,0,1,9866.235-9749.315Z" transform="translate(-9842.999 9773.999)" fill="#fff"/>
</svg>
